:FULLY-SPECIFIED
:FORCE-ALL-JOINTS-BE-3DOF
:DEGREES
510
root 5.81053 16.3576 -5.30501 -171.368 80.2646 -176.321
lfemur -24.403 -16.2588 -22.7515
ltibia 52.0275 0 0
lfoot -25.9986 -3.8585 0
ltoes 7.56385 0 0
rfemur -58.4249 6.52313 5.3407
rtibia 60.2406 0 0
rfoot 10.8426 8.28181 0
rtoes -16.9948 0 0
lowerback 8.63593 0.195569 -0.725194
upperback 1.30053 0.366676 2.77858
thorax -3.51763 0.235101 3.25056
lowerneck -8.76239 -12.0736 -3.77958
upperneck 11.5588 -16.0534 2.52415
head 5.40423 -7.82544 0.157196
lclavicle -1.83149e-14 3.37667e-14 0
lhumerus -47.3561 -35.0134 118.214
lradius 56.8551 0 0
lwrist 6.20906 0 0
lhand 7.1073 -0.320259 0
lfingers 7.12502 0 0
lthumb 32.3747 26.7829 0
rclavicle -1.83149e-14 3.37667e-14 0
rhumerus -18.2512 46.2388 -76.872
rradius 114.421 0 0
rwrist -9.00108 0 0
rhand 16.3585 -10.9283 0
rfingers 7.12502 0 0
rthumb 41.1477 -755.975 0
511
root 5.86194 16.3323 -5.25483 -174.174 79.1834 -179.209
lfemur -24.5777 -15.7796 -22.8178
ltibia 52.7563 0 0
lfoot -26.1681 -3.05187 0
ltoes 6.52248 0 0
rfemur -58.2148 6.20484 4.88281
rtibia 58.8015 0 0
rfoot 11.0977 8.30527 0
rtoes -17.6271 0 0
lowerback 8.75489 0.235705 -0.618234
upperback 1.37038 0.444734 2.9711
thorax -3.51767 0.276529 3.3826
lowerneck -8.67106 -12.3047 -3.96822
upperneck 11.7301 -16.3573 2.6157
head 5.47101 -7.97168 0.18148
lclavicle -2.53811e-14 3.90572e-14 0
lhumerus -47.1537 -34.8716 118.241
lradius 56.9989 0 0
lwrist 6.55859 0 0
lhand 6.38347 -0.625243 0
lfingers 7.12502 0 0
lthumb 31.684 26.6043 0
rclavicle -2.53811e-14 3.90572e-14 0
rhumerus -15.899 44.793 -75.4674
rradius 116.35 0 0
rwrist -12.847 0 0
rhand 17.2434 -10.7304 0
rfingers 7.12502 0 0
rthumb 41.9921 -755.633 0
512
root 5.92122 16.3009 -5.19698 -176.049 77.8123 -181.214
lfemur -24.8314 -15.172 -22.9059
ltibia 53.6371 0 0
lfoot -26.3624 -2.02145 0
ltoes 5.2739 0 0
rfemur -57.9235 5.77552 4.33664
rtibia 57.101 0 0
rfoot 11.4281 8.3552 0
rtoes -18.4348 0 0
lowerback 8.87099 0.280908 -0.4848
upperback 1.44921 0.535407 3.20244
thorax -3.508 0.324695 3.53856
lowerneck -8.5536 -12.576 -4.19012
upperneck 11.9107 -16.7141 2.72611
head 5.546 -8.14357 0.211511
lclavicle -3.41179e-14 4.56761e-14 0
lhumerus -46.9071 -34.6611 118.244
lradius 57.1774 0 0
lwrist 6.98943 0 0
lhand 5.44397 -1.01055 0
lfingers 7.12502 0 0
lthumb 30.7875 26.3834 0
rclavicle -3.41179e-14 4.56761e-14 0
rhumerus -13.1033 42.7546 -73.8444
rradius 118.542 0 0
rwrist -17.4845 0 0
rhand 18.1661 -10.5456 0
rfingers 7.12502 0 0
rthumb 42.8726 -755.302 0
513
root 5.98634 16.2633 -5.13365 -176.708 76.1891 -182.042
lfemur -25.1624 -14.4534 -23.0109
ltibia 54.6509 0 0
lfoot -26.5771 -0.809955 0
ltoes 3.87003 0 0
rfemur -57.5482 5.24756 3.71998
rtibia 55.2216 0 0
rfoot 11.8155 8.43369 0
rtoes -19.4094 0 0
lowerback 8.97909 0.329383 -0.328674
upperback 1.53691 0.635841 3.46491
thorax -3.48568 0.37822 3.71283
lowerneck -8.41145 -12.8765 -4.43584
upperneck 12.0895 -17.1099 2.85298
head 5.62543 -8.33419 0.246771
lclavicle -4.39449e-14 5.31146e-14 0
lhumerus -46.6252 -34.3772 118.213
lradius 57.3858 0 0
lwrist 7.49558 0 0
lhand 4.3011 -1.46514 0
lfingers 7.12502 0 0
lthumb 29.6967 26.1269 0
rclavicle -4.39449e-14 5.31146e-14 0
rhumerus -9.98624 40.1573 -72.1073
rradius 120.885 0 0
rwrist -22.7026 0 0
rhand 19.0026 -10.4065 0
rfingers 7.12502 0 0
rthumb 43.6707 -755.032 0
514
root 6.05588 16.2194 -5.06663 -176.129 74.3675 -181.662
lfemur -25.5615 -13.6487 -23.1245
ltibia 55.7822 0 0
lfoot -26.8109 0.518067 0
ltoes 2.36909 0 0
rfemur -57.0898 4.64516 3.04989
rtibia 53.2548 0 0
rfoot 12.2315 8.53915 0
rtoes -20.5387 0 0
lowerback 9.08026 0.379915 -0.154718
upperback 1.63597 0.743986 3.75051
thorax -3.44852 0.436217 3.90008
lowerneck -8.24682 -13.1955 -4.6958
upperneck 12.2592 -17.5311 2.99439
head 5.70612 -8.53682 0.286747
lclavicle -5.40478e-14 6.06296e-14 0
lhumerus -46.3187 -34.0199 118.14
lradius 57.6184 0 0
lwrist 8.07231 0 0
lhand 2.97605 -1.97358 0
lfingers 7.12502 0 0
lthumb 28.4317 25.8429 0
rclavicle -5.40478e-14 6.06296e-14 0
rhumerus -6.68107 37.0976 -70.3723
rradius 123.278 0 0
rwrist -28.2496 0 0
rhand 19.6135 -10.3471 0
rfingers 7.12502 0 0
rthumb 44.2531 -754.874 0
515
root 6.12899 16.1688 -4.99725 -174.563 72.4174 -180.299
lfemur -26.0111 -12.7902 -23.2348
ltibia 57.0191 0 0
lfoot -27.0661 1.87622 0
ltoes 0.835642 0 0
rfemur -56.553 4.00425 2.34276
rtibia 51.3008 0 0
rfoot 12.6373 8.66629 0
rtoes -21.8068 0 0
lowerback 9.1818 0.431875 0.0311301
upperback 1.75149 0.858604 4.05101
thorax -3.39513 0.498295 4.09527
lowerneck -8.06271 -13.5227 -4.96029
upperneck 12.4161 -17.9645 3.1489
head 5.78553 -8.7449 0.330936
lclavicle -6.33787e-14 6.72434e-14 0
lhumerus -45.9998 -33.5935 118.019
lradius 57.8684 0 0
lwrist 8.71614 0 0
lhand 1.49895 -2.51603 0
lfingers 7.12502 0 0
lthumb 27.0207 25.5411 0
rclavicle -6.33787e-14 6.72434e-14 0
rhumerus -3.33214 33.7345 -68.7683
rradius 125.626 0 0
rwrist -33.8334 0 0
rhand 19.8441 -10.402 0
rfingers 7.12502 0 0
rthumb 44.4717 -754.881 0
